<?xml version="1.0"?>
<svg width="982" height="1143" xmlns="http://www.w3.org/2000/svg" xmlns:svg="http://www.w3.org/2000/svg">
 <g class="layer">
  <title>Layer 1</title>
  <path d="m-1,45.36c0,-25.05 20.31,-45.36 45.36,-45.36l936.64,0l0,1104.03c0,21.52 -17.45,38.97 -38.97,38.97l0,0c-520.82,0 -943.03,-422.21 -943.03,-943.03l0,-154.61z" fill="#7f00ff" id="svg_1"/>
  <path d="m593,811c0,-1.76 0,-2.65 0,-3.52c0,-0.96 0,-1.88 0,-2.68c0,-0.9 0,-1.69 0,-2.66c0,-0.66 -0.01,-1.79 0,-2.45c0.02,-1.08 0.04,-1.81 0.22,-2.87c0.11,-0.67 0.41,-1.65 0.66,-2.31c0.41,-1.05 0.77,-1.78 1.16,-2.56c0.41,-0.82 0.64,-1.25 1.38,-2.58c0.26,-0.47 0.81,-1.42 1.1,-1.9c0.58,-0.98 0.88,-1.48 1.48,-2.48c0.6,-1 0.9,-1.51 1.21,-2.01c0.62,-1.03 0.94,-1.55 1.27,-2.07c0.68,-1.08 1.4,-2.2 1.77,-2.78c0.38,-0.59 0.76,-1.18 1.15,-1.78c0.39,-0.61 0.8,-1.24 1.59,-2.52c0.4,-0.65 0.8,-1.32 1.2,-1.99c0.4,-0.67 1.2,-2.02 1.6,-2.69c0.4,-0.67 1.2,-1.99 1.6,-2.63c0.4,-0.64 0.79,-1.27 1.18,-1.9c0.38,-0.62 0.76,-1.25 1.11,-1.88c0.35,-0.63 1.01,-1.9 1.54,-3.23c0.27,-0.66 0.5,-1.34 0.71,-2.02c0.21,-0.67 0.41,-1.35 0.57,-2.02c0.49,-1.96 0.61,-2.6 0.74,-3.23c0.13,-0.63 0.38,-1.88 0.51,-2.51c0.13,-0.63 0.41,-1.91 0.57,-2.57c0.32,-1.33 0.5,-1.99 0.68,-2.66c0.17,-0.66 0.36,-1.31 0.83,-3.19c0.15,-0.59 0.29,-1.16 0.52,-2.27c0.11,-0.54 0.3,-1.61 0.36,-2.14c0.2,-1.64 0.21,-2.2 0.23,-2.77c0.06,-1.15 0.07,-1.72 0.14,-2.86c0.07,-1.12 0.13,-1.66 0.27,-2.72c0.14,-1.02 0.24,-1.51 0.36,-2.47c0.18,-1.36 0.21,-1.8 0.25,-2.66c0.04,-0.85 0.04,-1.71 0.04,-3.05c0,-0.46 0,-1.41 -0.11,-2.35c-0.11,-0.95 -0.35,-1.88 -0.75,-2.74c-0.39,-0.87 -0.68,-1.26 -1.15,-2.08c-0.68,-1.2 -0.87,-1.6 -1.2,-2.41c-0.32,-0.81 -0.58,-1.67 -1.14,-2.96c-0.2,-0.46 -0.67,-1.38 -0.94,-1.84c-0.53,-0.91 -0.78,-1.37 -1.73,-2.5c-0.57,-0.67 -1.21,-1.22 -1.87,-1.7c-0.68,-0.5 -1.46,-0.97 -2.3,-1.48c-0.45,-0.27 -1.41,-0.82 -1.92,-1.09c-1.07,-0.56 -2.24,-1.07 -2.85,-1.3c-0.62,-0.24 -1.26,-0.48 -2.56,-0.86c-0.65,-0.19 -1.29,-0.35 -1.93,-0.49c-1.23,-0.26 -2.4,-0.41 -2.96,-0.46c-1.09,-0.1 -1.63,-0.12 -2.69,-0.19c-1.08,-0.08 -2.2,-0.2 -2.76,-0.27l-1.1,-0.15l-0.53,-0.07l-0.99,-0.14" fill="none" id="svg_2" transform="matrix(1 0 0 1 0 0)"/>
 </g>
</svg>